<?xml version="1.0" standalone="no"?>
<!DOCTYPE svg PUBLIC "-//W3C//DTD SVG 20010904//EN"
 "http://www.w3.org/TR/2001/REC-SVG-20010904/DTD/svg10.dtd">
<svg version="1.0" xmlns="http://www.w3.org/2000/svg"
 width="980.000000pt" height="980.000000pt" viewBox="0 0 980.000000 980.000000"
 preserveAspectRatio="xMidYMid meet">

<g transform="translate(0.000000,980.000000) scale(0.100000,-0.100000)"
fill="#000000" stroke="none">
<path d="M1780 8001 c-117 -36 -192 -127 -207 -250 -13 -109 62 -234 169 -282
52 -24 59 -24 400 -27 255 -3 348 -7 351 -15 2 -7 84 -223 181 -480 l177 -468
29 -182 c16 -100 97 -612 180 -1137 83 -525 157 -983 165 -1018 36 -155 129
-317 255 -442 133 -134 291 -221 468 -260 83 -19 143 -20 1335 -20 1371 0
1314 -2 1477 61 174 67 350 206 450 356 28 42 181 335 340 652 159 317 364
725 455 906 202 403 218 453 219 670 0 115 -4 155 -22 224 -48 177 -124 314
-246 440 -91 93 -170 150 -287 205 -108 50 -190 72 -321 86 -57 6 -864 10
-2096 10 l-2002 0 -10 23 c-5 12 -57 148 -115 302 -209 552 -192 515 -250 571
-86 85 -78 84 -609 83 -254 0 -472 -4 -486 -8z m5650 -1578 c83 -40 152 -110
193 -193 30 -60 32 -72 32 -169 l0 -104 -450 -895 c-480 -955 -487 -966 -589
-1026 -99 -58 -57 -56 -1323 -56 -812 0 -1178 3 -1215 11 -115 24 -220 103
-271 206 -29 57 -38 98 -71 308 -52 328 -237 1498 -271 1710 -19 121 -35 226
-35 233 0 10 387 12 1968 10 l1967 -3 65 -32z"/>
<path d="M3995 3108 c-86 -16 -191 -73 -259 -141 -110 -111 -163 -249 -153
-402 9 -153 87 -298 207 -386 215 -158 493 -138 681 50 203 203 207 517 11
723 -128 135 -304 191 -487 156z"/>
<path d="M5900 3106 c-163 -42 -279 -135 -351 -281 -205 -416 194 -870 636
-723 78 25 140 65 204 131 89 91 136 191 147 317 22 235 -120 456 -346 538
-82 30 -212 38 -290 18z"/>
</g>
</svg>
